<mxfile host="Electron" modified="2023-10-25T09:11:01.408Z" agent="Mozilla/5.0 (X11; Linux x86_64) AppleWebKit/537.36 (KHTML, like Gecko) draw.io/22.0.3 Chrome/114.0.5735.289 Electron/25.8.4 Safari/537.36" etag="z60PEiDDD3paQV0m_MHF" version="22.0.3" type="device">
  <diagram name="Pagina-1" id="lVRO8FN0cl4bYZhDUq4U">
    <mxGraphModel dx="1434" dy="824" grid="1" gridSize="10" guides="1" tooltips="1" connect="1" arrows="1" fold="1" page="1" pageScale="1" pageWidth="827" pageHeight="1169" math="0" shadow="0">
      <root>
        <mxCell id="0" />
        <mxCell id="1" parent="0" />
        <mxCell id="x7jNuO1yDWylh4T2NmT3-3" style="edgeStyle=orthogonalEdgeStyle;rounded=0;orthogonalLoop=1;jettySize=auto;html=1;exitX=0.5;exitY=0.5;exitDx=0;exitDy=0;exitPerimeter=0;entryX=0;entryY=0.5;entryDx=0;entryDy=0;endArrow=none;endFill=0;" edge="1" parent="1" source="x7jNuO1yDWylh4T2NmT3-1" target="x7jNuO1yDWylh4T2NmT3-2">
          <mxGeometry relative="1" as="geometry" />
        </mxCell>
        <mxCell id="x7jNuO1yDWylh4T2NmT3-5" style="edgeStyle=orthogonalEdgeStyle;rounded=0;orthogonalLoop=1;jettySize=auto;html=1;exitX=0.5;exitY=0.5;exitDx=0;exitDy=0;exitPerimeter=0;endArrow=none;endFill=0;" edge="1" parent="1" source="x7jNuO1yDWylh4T2NmT3-1" target="x7jNuO1yDWylh4T2NmT3-4">
          <mxGeometry relative="1" as="geometry" />
        </mxCell>
        <mxCell id="x7jNuO1yDWylh4T2NmT3-7" style="edgeStyle=orthogonalEdgeStyle;rounded=0;orthogonalLoop=1;jettySize=auto;html=1;exitX=0.5;exitY=0;exitDx=0;exitDy=0;exitPerimeter=0;entryX=0.5;entryY=1;entryDx=0;entryDy=0;endArrow=none;endFill=0;" edge="1" parent="1" source="x7jNuO1yDWylh4T2NmT3-1" target="x7jNuO1yDWylh4T2NmT3-6">
          <mxGeometry relative="1" as="geometry" />
        </mxCell>
        <mxCell id="x7jNuO1yDWylh4T2NmT3-17" style="edgeStyle=orthogonalEdgeStyle;rounded=0;orthogonalLoop=1;jettySize=auto;html=1;exitX=0.5;exitY=0.5;exitDx=0;exitDy=0;exitPerimeter=0;entryX=1;entryY=0.5;entryDx=0;entryDy=0;endArrow=none;endFill=0;" edge="1" parent="1" source="x7jNuO1yDWylh4T2NmT3-1" target="x7jNuO1yDWylh4T2NmT3-8">
          <mxGeometry relative="1" as="geometry" />
        </mxCell>
        <mxCell id="x7jNuO1yDWylh4T2NmT3-1" value="Amministratore" style="shape=umlActor;verticalLabelPosition=bottom;verticalAlign=top;html=1;outlineConnect=0;" vertex="1" parent="1">
          <mxGeometry x="450" y="650" width="30" height="60" as="geometry" />
        </mxCell>
        <mxCell id="x7jNuO1yDWylh4T2NmT3-2" value="Modifica Password" style="ellipse;whiteSpace=wrap;html=1;" vertex="1" parent="1">
          <mxGeometry x="600" y="585" width="120" height="80" as="geometry" />
        </mxCell>
        <mxCell id="x7jNuO1yDWylh4T2NmT3-4" value="Modifica Password di un utente dopo richiesta" style="ellipse;whiteSpace=wrap;html=1;" vertex="1" parent="1">
          <mxGeometry x="600" y="690" width="120" height="80" as="geometry" />
        </mxCell>
        <mxCell id="x7jNuO1yDWylh4T2NmT3-6" value="Modera Recensioni" style="ellipse;whiteSpace=wrap;html=1;" vertex="1" parent="1">
          <mxGeometry x="405" y="490" width="120" height="80" as="geometry" />
        </mxCell>
        <mxCell id="x7jNuO1yDWylh4T2NmT3-14" style="edgeStyle=orthogonalEdgeStyle;rounded=0;orthogonalLoop=1;jettySize=auto;html=1;exitX=0;exitY=0.5;exitDx=0;exitDy=0;dashed=1;" edge="1" parent="1" source="x7jNuO1yDWylh4T2NmT3-8" target="x7jNuO1yDWylh4T2NmT3-13">
          <mxGeometry relative="1" as="geometry" />
        </mxCell>
        <mxCell id="x7jNuO1yDWylh4T2NmT3-8" value="Pagine Lamentele" style="ellipse;whiteSpace=wrap;html=1;" vertex="1" parent="1">
          <mxGeometry x="250" y="640" width="120" height="80" as="geometry" />
        </mxCell>
        <mxCell id="x7jNuO1yDWylh4T2NmT3-18" style="edgeStyle=orthogonalEdgeStyle;rounded=0;orthogonalLoop=1;jettySize=auto;html=1;exitX=0.5;exitY=1;exitDx=0;exitDy=0;dashed=1;" edge="1" parent="1" source="x7jNuO1yDWylh4T2NmT3-10" target="x7jNuO1yDWylh4T2NmT3-8">
          <mxGeometry relative="1" as="geometry" />
        </mxCell>
        <mxCell id="x7jNuO1yDWylh4T2NmT3-10" value="Riporta Problematiche a chi di dovere" style="ellipse;whiteSpace=wrap;html=1;" vertex="1" parent="1">
          <mxGeometry x="250" y="510" width="120" height="80" as="geometry" />
        </mxCell>
        <mxCell id="x7jNuO1yDWylh4T2NmT3-13" value="Risponde alle lamentele" style="ellipse;whiteSpace=wrap;html=1;" vertex="1" parent="1">
          <mxGeometry x="80" y="640" width="120" height="80" as="geometry" />
        </mxCell>
        <mxCell id="x7jNuO1yDWylh4T2NmT3-15" value="&amp;lt;extend&amp;gt;" style="text;html=1;strokeColor=none;fillColor=none;align=center;verticalAlign=middle;whiteSpace=wrap;rounded=0;" vertex="1" parent="1">
          <mxGeometry x="250" y="590" width="60" height="30" as="geometry" />
        </mxCell>
        <mxCell id="x7jNuO1yDWylh4T2NmT3-16" value="&amp;lt;include&amp;gt;" style="text;html=1;strokeColor=none;fillColor=none;align=center;verticalAlign=middle;whiteSpace=wrap;rounded=0;" vertex="1" parent="1">
          <mxGeometry x="200" y="690" width="60" height="30" as="geometry" />
        </mxCell>
      </root>
    </mxGraphModel>
  </diagram>
</mxfile>
